<svg xmlns="http://www.w3.org/2000/svg" xmlns:xlink="http://www.w3.org/1999/xlink" width="820" height="600"><g transform="translate(-60 0)"><path d="M370 260c16.57 0 30 13.43 30 30v260c0 16.57-13.43 30-30 30H110c-16.57 0-30-13.43-30-30V290c0-16.57 13.43-30 30-30z" fill="none"/><path d="M372.5 260c0 1.38-1.12 2.5-2.5 2.5s-2.5-1.12-2.5-2.5 1.12-2.5 2.5-2.5 2.5 1.12 2.5 2.5zm9.26 1.5c0 1.38-1.12 2.5-2.5 2.5s-2.5-1.12-2.5-2.5 1.12-2.5 2.5-2.5 2.5 1.12 2.5 2.5zm8.33 4.3c0 1.37-1.13 2.5-2.5 2.5-1.4 0-2.5-1.13-2.5-2.5 0-1.4 1.1-2.5 2.5-2.5 1.37 0 2.5 1.1 2.5 2.5zm6.6 6.62c0 1.38-1.12 2.5-2.5 2.5s-2.5-1.12-2.5-2.5 1.12-2.5 2.5-2.5 2.5 1.12 2.5 2.5zm4.24 8.34c0 1.38-1.12 2.5-2.5 2.5s-2.5-1.12-2.5-2.5 1.12-2.5 2.5-2.5 2.5 1.12 2.5 2.5zm1.56 9.24c0 1.38-1.12 2.5-2.5 2.5s-2.5-1.12-2.5-2.5 1.12-2.5 2.5-2.5 2.5 1.12 2.5 2.5zm0 10c0 1.38-1.12 2.5-2.5 2.5s-2.5-1.12-2.5-2.5 1.12-2.5 2.5-2.5 2.5 1.12 2.5 2.5zm0 10c0 1.38-1.12 2.5-2.5 2.5s-2.5-1.12-2.5-2.5 1.12-2.5 2.5-2.5 2.5 1.12 2.5 2.5zm0 10c0 1.38-1.12 2.5-2.5 2.5s-2.5-1.12-2.5-2.5 1.12-2.5 2.5-2.5 2.5 1.12 2.5 2.5zm0 10c0 1.38-1.12 2.5-2.5 2.5s-2.5-1.12-2.5-2.5 1.12-2.5 2.5-2.5 2.5 1.12 2.5 2.5zm0 10c0 1.38-1.12 2.5-2.5 2.5s-2.5-1.12-2.5-2.5 1.12-2.5 2.5-2.5 2.5 1.12 2.5 2.5zm0 10c0 1.38-1.12 2.5-2.5 2.5s-2.5-1.12-2.5-2.5 1.12-2.5 2.5-2.5 2.5 1.12 2.5 2.5zm0 10c0 1.38-1.12 2.5-2.5 2.5s-2.5-1.12-2.5-2.5 1.12-2.5 2.5-2.5 2.5 1.12 2.5 2.5zm0 10c0 1.38-1.12 2.5-2.5 2.5s-2.5-1.12-2.5-2.5 1.12-2.5 2.5-2.5 2.5 1.12 2.5 2.5zm0 10c0 1.38-1.12 2.5-2.5 2.5s-2.5-1.12-2.5-2.5 1.12-2.5 2.5-2.5 2.5 1.12 2.5 2.5zm0 10c0 1.38-1.12 2.5-2.5 2.5s-2.5-1.12-2.5-2.5 1.12-2.5 2.5-2.5 2.5 1.12 2.5 2.5zm0 10c0 1.38-1.12 2.5-2.5 2.5s-2.5-1.12-2.5-2.5 1.12-2.5 2.5-2.5 2.5 1.12 2.5 2.5zm0 10c0 1.38-1.12 2.5-2.5 2.5s-2.5-1.12-2.5-2.5 1.12-2.5 2.5-2.5 2.5 1.12 2.5 2.5zm0 10c0 1.38-1.12 2.5-2.5 2.5s-2.5-1.12-2.5-2.5 1.12-2.5 2.5-2.5 2.5 1.12 2.5 2.5zm0 10c0 1.38-1.12 2.5-2.5 2.5s-2.5-1.12-2.5-2.5 1.12-2.5 2.5-2.5 2.5 1.12 2.5 2.5zm0 10c0 1.38-1.12 2.5-2.5 2.5s-2.5-1.12-2.5-2.5 1.12-2.5 2.5-2.5 2.5 1.12 2.5 2.5zm0 10c0 1.38-1.12 2.5-2.5 2.5s-2.5-1.12-2.5-2.5 1.12-2.5 2.5-2.5 2.5 1.12 2.5 2.5zm0 10c0 1.38-1.12 2.5-2.5 2.5s-2.5-1.12-2.5-2.5 1.12-2.5 2.5-2.5 2.5 1.12 2.5 2.5zm0 10c0 1.38-1.12 2.5-2.5 2.5s-2.5-1.12-2.5-2.5 1.12-2.5 2.5-2.5 2.5 1.12 2.5 2.5zm0 10c0 1.38-1.12 2.5-2.5 2.5s-2.5-1.12-2.5-2.5 1.12-2.5 2.5-2.5 2.5 1.12 2.5 2.5zm0 10c0 1.38-1.12 2.5-2.5 2.5s-2.5-1.12-2.5-2.5 1.12-2.5 2.5-2.5 2.5 1.12 2.5 2.5zm0 10c0 1.38-1.12 2.5-2.5 2.5s-2.5-1.12-2.5-2.5 1.12-2.5 2.5-2.5 2.5 1.12 2.5 2.5zm0 10c0 1.38-1.12 2.5-2.5 2.5s-2.5-1.12-2.5-2.5 1.12-2.5 2.5-2.5 2.5 1.12 2.5 2.5zm0 10c0 1.38-1.12 2.5-2.5 2.5s-2.5-1.12-2.5-2.5 1.12-2.5 2.5-2.5 2.5 1.12 2.5 2.5zm0 10c0 1.38-1.12 2.5-2.5 2.5s-2.5-1.12-2.5-2.5 1.12-2.5 2.5-2.5 2.5 1.12 2.5 2.5zm0 10c0 1.38-1.12 2.5-2.5 2.5s-2.5-1.12-2.5-2.5 1.12-2.5 2.5-2.5 2.5 1.12 2.5 2.5zm0 10c0 1.38-1.12 2.5-2.5 2.5s-2.5-1.12-2.5-2.5 1.12-2.5 2.5-2.5 2.5 1.12 2.5 2.5zm-1.5 9.26c0 1.38-1.12 2.5-2.5 2.5s-2.5-1.12-2.5-2.5 1.12-2.5 2.5-2.5 2.5 1.12 2.5 2.5zm-4.3 8.33c0 1.37-1.1 2.5-2.5 2.5-1.37 0-2.5-1.13-2.5-2.5 0-1.4 1.13-2.5 2.5-2.5 1.4 0 2.5 1.1 2.5 2.5zm-6.62 6.6c0 1.38-1.12 2.5-2.5 2.5s-2.5-1.12-2.5-2.5 1.12-2.5 2.5-2.5 2.5 1.12 2.5 2.5zm-8.34 4.24c0 1.38-1.12 2.5-2.5 2.5s-2.5-1.12-2.5-2.5 1.12-2.5 2.5-2.5 2.5 1.12 2.5 2.5zM372.5 580c0 1.38-1.12 2.5-2.5 2.5s-2.5-1.12-2.5-2.5 1.12-2.5 2.5-2.5 2.5 1.12 2.5 2.5zm-10 0c0 1.38-1.12 2.5-2.5 2.5s-2.5-1.12-2.5-2.5 1.12-2.5 2.5-2.5 2.5 1.12 2.5 2.5zm-10 0c0 1.38-1.12 2.5-2.5 2.5s-2.5-1.12-2.5-2.5 1.12-2.5 2.5-2.5 2.5 1.12 2.5 2.5zm-10 0c0 1.38-1.12 2.5-2.5 2.5s-2.5-1.12-2.5-2.5 1.12-2.5 2.5-2.5 2.5 1.12 2.5 2.5zm-10 0c0 1.38-1.12 2.5-2.5 2.5s-2.5-1.12-2.5-2.5 1.12-2.5 2.5-2.5 2.5 1.12 2.5 2.5zm-10 0c0 1.38-1.12 2.5-2.5 2.5s-2.5-1.12-2.5-2.5 1.12-2.5 2.5-2.5 2.5 1.12 2.5 2.5zm-10 0c0 1.38-1.12 2.5-2.5 2.5s-2.5-1.12-2.5-2.5 1.12-2.5 2.5-2.5 2.5 1.12 2.5 2.5zm-10 0c0 1.38-1.12 2.5-2.5 2.5s-2.5-1.12-2.5-2.5 1.12-2.5 2.5-2.5 2.5 1.12 2.5 2.5zm-10 0c0 1.38-1.12 2.5-2.5 2.5s-2.5-1.12-2.5-2.5 1.12-2.5 2.5-2.5 2.5 1.12 2.5 2.5zm-10 0c0 1.38-1.12 2.5-2.5 2.5s-2.5-1.12-2.5-2.5 1.12-2.5 2.5-2.5 2.5 1.12 2.5 2.5zm-10 0c0 1.38-1.12 2.5-2.5 2.5s-2.5-1.12-2.5-2.5 1.12-2.5 2.5-2.5 2.5 1.12 2.5 2.5zm-10 0c0 1.38-1.12 2.5-2.5 2.5s-2.5-1.12-2.5-2.5 1.12-2.5 2.5-2.5 2.5 1.12 2.5 2.5zm-10 0c0 1.38-1.12 2.5-2.5 2.5s-2.5-1.12-2.5-2.5 1.12-2.5 2.5-2.5 2.5 1.12 2.5 2.5zm-10 0c0 1.38-1.12 2.5-2.5 2.5s-2.5-1.12-2.5-2.5 1.12-2.5 2.5-2.5 2.5 1.12 2.5 2.5zm-10 0c0 1.38-1.12 2.5-2.5 2.5s-2.5-1.12-2.5-2.5 1.12-2.5 2.5-2.5 2.5 1.12 2.5 2.5zm-10 0c0 1.38-1.12 2.5-2.5 2.5s-2.5-1.12-2.5-2.5 1.12-2.5 2.5-2.5 2.5 1.12 2.5 2.5zm-10 0c0 1.38-1.12 2.5-2.5 2.5s-2.5-1.12-2.5-2.5 1.12-2.5 2.5-2.5 2.5 1.12 2.5 2.5zm-10 0c0 1.38-1.12 2.5-2.5 2.5s-2.5-1.12-2.5-2.5 1.12-2.5 2.5-2.5 2.5 1.12 2.5 2.5zm-10 0c0 1.38-1.12 2.5-2.5 2.5s-2.5-1.12-2.5-2.5 1.12-2.5 2.5-2.5 2.5 1.12 2.5 2.5zm-10 0c0 1.38-1.12 2.5-2.5 2.5s-2.5-1.12-2.5-2.5 1.12-2.5 2.5-2.5 2.5 1.12 2.5 2.5zm-10 0c0 1.38-1.12 2.5-2.5 2.5s-2.5-1.12-2.5-2.5 1.12-2.5 2.5-2.5 2.5 1.12 2.5 2.5zm-10 0c0 1.38-1.12 2.5-2.5 2.5s-2.5-1.12-2.5-2.5 1.12-2.5 2.5-2.5 2.5 1.12 2.5 2.5zm-10 0c0 1.38-1.12 2.5-2.5 2.5s-2.5-1.12-2.5-2.5 1.12-2.5 2.5-2.5 2.5 1.12 2.5 2.5zm-10 0c0 1.38-1.12 2.5-2.5 2.5s-2.5-1.12-2.5-2.5 1.12-2.5 2.5-2.5 2.5 1.12 2.5 2.5zm-10 0c0 1.38-1.12 2.5-2.5 2.5s-2.5-1.12-2.5-2.5 1.12-2.5 2.5-2.5 2.5 1.12 2.5 2.5zm-10 0c0 1.38-1.12 2.5-2.5 2.5s-2.5-1.12-2.5-2.5 1.12-2.5 2.5-2.5 2.5 1.12 2.5 2.5zm-10 0c0 1.38-1.12 2.5-2.5 2.5s-2.5-1.12-2.5-2.5 1.12-2.5 2.5-2.5 2.5 1.12 2.5 2.5zm-9.26-1.5c0 1.38-1.12 2.5-2.5 2.5s-2.5-1.12-2.5-2.5 1.12-2.5 2.5-2.5 2.5 1.12 2.5 2.5zm-8.33-4.3c0 1.4-1.1 2.5-2.5 2.5-1.37 0-2.5-1.1-2.5-2.5 0-1.37 1.13-2.5 2.5-2.5 1.4 0 2.5 1.13 2.5 2.5zm-6.6-6.62c0 1.38-1.12 2.5-2.5 2.5s-2.5-1.12-2.5-2.5 1.12-2.5 2.5-2.5 2.5 1.12 2.5 2.5zm-4.24-8.34c0 1.38-1.12 2.5-2.5 2.5s-2.5-1.12-2.5-2.5 1.12-2.5 2.5-2.5 2.5 1.12 2.5 2.5zM82.5 550c0 1.38-1.12 2.5-2.5 2.5s-2.5-1.12-2.5-2.5 1.12-2.5 2.5-2.5 2.5 1.12 2.5 2.5zm0-10c0 1.38-1.12 2.5-2.5 2.5s-2.5-1.12-2.5-2.5 1.12-2.5 2.5-2.5 2.5 1.12 2.5 2.5zm0-10c0 1.38-1.12 2.5-2.5 2.5s-2.5-1.12-2.5-2.5 1.12-2.5 2.5-2.5 2.5 1.12 2.5 2.5zm0-10c0 1.38-1.12 2.5-2.5 2.5s-2.5-1.12-2.5-2.5 1.12-2.5 2.5-2.5 2.5 1.12 2.5 2.5zm0-10c0 1.38-1.12 2.5-2.5 2.5s-2.5-1.12-2.5-2.5 1.12-2.5 2.5-2.5 2.5 1.12 2.5 2.5zm0-10c0 1.38-1.12 2.5-2.5 2.5s-2.5-1.12-2.5-2.5 1.12-2.5 2.5-2.5 2.5 1.12 2.5 2.5zm0-10c0 1.38-1.12 2.5-2.5 2.5s-2.5-1.12-2.5-2.5 1.12-2.5 2.5-2.5 2.5 1.12 2.5 2.5zm0-10c0 1.38-1.12 2.5-2.5 2.5s-2.5-1.12-2.5-2.5 1.12-2.5 2.5-2.5 2.5 1.12 2.5 2.5zm0-10c0 1.38-1.12 2.5-2.5 2.5s-2.5-1.12-2.5-2.5 1.12-2.5 2.5-2.5 2.5 1.12 2.5 2.5zm0-10c0 1.38-1.12 2.5-2.5 2.5s-2.5-1.12-2.5-2.5 1.12-2.5 2.5-2.5 2.5 1.12 2.5 2.5zm0-10c0 1.38-1.12 2.5-2.5 2.5s-2.5-1.12-2.5-2.5 1.12-2.5 2.5-2.5 2.5 1.12 2.5 2.5zm0-10c0 1.38-1.12 2.5-2.5 2.5s-2.5-1.12-2.5-2.5 1.12-2.5 2.5-2.5 2.5 1.12 2.5 2.5zm0-10c0 1.38-1.12 2.5-2.5 2.5s-2.5-1.12-2.5-2.5 1.12-2.5 2.5-2.5 2.5 1.12 2.5 2.5zm0-10c0 1.38-1.12 2.5-2.5 2.5s-2.5-1.12-2.5-2.5 1.12-2.5 2.5-2.5 2.5 1.12 2.5 2.5zm0-10c0 1.38-1.12 2.5-2.5 2.5s-2.5-1.12-2.5-2.5 1.12-2.5 2.5-2.5 2.5 1.12 2.5 2.5zm0-10c0 1.38-1.12 2.5-2.5 2.5s-2.5-1.12-2.5-2.5 1.12-2.5 2.5-2.5 2.5 1.12 2.5 2.5zm0-10c0 1.38-1.12 2.5-2.5 2.5s-2.5-1.12-2.5-2.5 1.12-2.5 2.5-2.5 2.5 1.12 2.5 2.5zm0-10c0 1.38-1.12 2.5-2.5 2.5s-2.5-1.12-2.5-2.5 1.12-2.5 2.5-2.5 2.5 1.12 2.5 2.5zm0-10c0 1.38-1.12 2.5-2.5 2.5s-2.5-1.12-2.5-2.5 1.12-2.5 2.5-2.5 2.5 1.12 2.5 2.5zm0-10c0 1.38-1.12 2.5-2.5 2.5s-2.5-1.12-2.5-2.5 1.12-2.5 2.5-2.5 2.5 1.12 2.5 2.5zm0-10c0 1.38-1.12 2.5-2.5 2.5s-2.5-1.12-2.5-2.5 1.12-2.5 2.5-2.5 2.5 1.12 2.5 2.5zm0-10c0 1.38-1.12 2.5-2.5 2.5s-2.5-1.12-2.5-2.5 1.12-2.5 2.5-2.5 2.5 1.12 2.5 2.5zm0-10c0 1.38-1.12 2.5-2.5 2.5s-2.5-1.12-2.5-2.5 1.12-2.5 2.5-2.5 2.5 1.12 2.5 2.5zm0-10c0 1.38-1.12 2.5-2.5 2.5s-2.5-1.12-2.5-2.5 1.12-2.5 2.5-2.5 2.5 1.12 2.5 2.5zm0-10c0 1.38-1.12 2.5-2.5 2.5s-2.5-1.12-2.5-2.5 1.12-2.5 2.5-2.5 2.5 1.12 2.5 2.5zm0-10c0 1.38-1.12 2.5-2.5 2.5s-2.5-1.12-2.5-2.5 1.12-2.5 2.5-2.5 2.5 1.12 2.5 2.5zm0-10c0 1.38-1.12 2.5-2.5 2.5s-2.5-1.12-2.5-2.5 1.12-2.5 2.5-2.5 2.5 1.12 2.5 2.5zm1.5-9.26c0 1.38-1.12 2.5-2.5 2.5s-2.5-1.12-2.5-2.5 1.12-2.5 2.5-2.5 2.5 1.12 2.5 2.5zm4.3-8.33c0 1.4-1.13 2.5-2.5 2.5-1.4 0-2.5-1.1-2.5-2.5 0-1.37 1.1-2.5 2.5-2.5 1.37 0 2.5 1.13 2.5 2.5zm6.62-6.6c0 1.38-1.12 2.5-2.5 2.5s-2.5-1.12-2.5-2.5 1.12-2.5 2.5-2.5 2.5 1.12 2.5 2.5zm8.34-4.24c0 1.38-1.12 2.5-2.5 2.5s-2.5-1.12-2.5-2.5 1.12-2.5 2.5-2.5 2.5 1.12 2.5 2.5zm9.24-1.56c0 1.38-1.12 2.5-2.5 2.5s-2.5-1.12-2.5-2.5 1.12-2.5 2.5-2.5 2.5 1.12 2.5 2.5zm10 0c0 1.38-1.12 2.5-2.5 2.5s-2.5-1.12-2.5-2.5 1.12-2.5 2.5-2.5 2.5 1.12 2.5 2.5zm10 0c0 1.38-1.12 2.5-2.5 2.5s-2.5-1.12-2.5-2.5 1.12-2.5 2.5-2.5 2.5 1.12 2.5 2.5zm10 0c0 1.38-1.12 2.5-2.5 2.5s-2.5-1.12-2.5-2.5 1.12-2.5 2.5-2.5 2.5 1.12 2.5 2.5zm10 0c0 1.38-1.12 2.5-2.5 2.5s-2.5-1.12-2.5-2.5 1.12-2.5 2.5-2.5 2.5 1.12 2.5 2.5zm10 0c0 1.38-1.12 2.5-2.5 2.5s-2.5-1.12-2.5-2.5 1.12-2.5 2.5-2.5 2.5 1.12 2.5 2.5zm10 0c0 1.38-1.12 2.5-2.5 2.5s-2.5-1.12-2.5-2.5 1.12-2.5 2.5-2.5 2.5 1.12 2.5 2.5zm10 0c0 1.38-1.12 2.5-2.5 2.5s-2.5-1.12-2.5-2.5 1.12-2.5 2.5-2.5 2.5 1.12 2.5 2.5zm10 0c0 1.38-1.12 2.5-2.5 2.5s-2.5-1.12-2.5-2.5 1.12-2.5 2.5-2.5 2.5 1.12 2.5 2.5zm10 0c0 1.38-1.12 2.5-2.5 2.5s-2.5-1.12-2.5-2.5 1.12-2.5 2.5-2.5 2.5 1.12 2.5 2.5zm10 0c0 1.38-1.12 2.5-2.5 2.5s-2.5-1.12-2.5-2.5 1.12-2.5 2.5-2.5 2.5 1.12 2.5 2.5zm10 0c0 1.38-1.12 2.5-2.5 2.5s-2.5-1.12-2.5-2.5 1.12-2.5 2.5-2.5 2.5 1.12 2.5 2.5zm10 0c0 1.38-1.12 2.5-2.5 2.5s-2.5-1.12-2.5-2.5 1.12-2.5 2.5-2.5 2.5 1.12 2.5 2.5zm10 0c0 1.38-1.12 2.5-2.5 2.5s-2.5-1.12-2.5-2.5 1.12-2.5 2.5-2.5 2.5 1.12 2.5 2.5zm10 0c0 1.38-1.12 2.5-2.5 2.5s-2.5-1.12-2.5-2.5 1.12-2.5 2.5-2.5 2.5 1.12 2.5 2.5zm10 0c0 1.38-1.12 2.5-2.5 2.5s-2.5-1.12-2.5-2.5 1.12-2.5 2.5-2.5 2.5 1.12 2.5 2.5zm10 0c0 1.38-1.12 2.5-2.5 2.5s-2.5-1.12-2.5-2.5 1.12-2.5 2.5-2.5 2.5 1.12 2.5 2.5zm10 0c0 1.38-1.12 2.5-2.5 2.5s-2.5-1.12-2.5-2.5 1.12-2.5 2.5-2.5 2.5 1.12 2.5 2.5zm10 0c0 1.38-1.12 2.5-2.5 2.5s-2.5-1.12-2.5-2.5 1.12-2.5 2.5-2.5 2.5 1.12 2.5 2.5zm10 0c0 1.38-1.12 2.5-2.5 2.5s-2.5-1.12-2.5-2.5 1.12-2.5 2.5-2.5 2.5 1.12 2.5 2.5zm10 0c0 1.38-1.12 2.5-2.5 2.5s-2.5-1.12-2.5-2.5 1.12-2.5 2.5-2.5 2.5 1.12 2.5 2.5zm10 0c0 1.38-1.12 2.5-2.5 2.5s-2.5-1.12-2.5-2.5 1.12-2.5 2.5-2.5 2.5 1.12 2.5 2.5zm10 0c0 1.38-1.12 2.5-2.5 2.5s-2.5-1.12-2.5-2.5 1.12-2.5 2.5-2.5 2.5 1.12 2.5 2.5zm10 0c0 1.38-1.12 2.5-2.5 2.5s-2.5-1.12-2.5-2.5 1.12-2.5 2.5-2.5 2.5 1.12 2.5 2.5zm10 0c0 1.38-1.12 2.5-2.5 2.5s-2.5-1.12-2.5-2.5 1.12-2.5 2.5-2.5 2.5 1.12 2.5 2.5zm10 0c0 1.38-1.12 2.5-2.5 2.5s-2.5-1.12-2.5-2.5 1.12-2.5 2.5-2.5 2.5 1.12 2.5 2.5z"/><use xlink:href="#a" transform="matrix(1,0,0,1,80,560) translate(112.1 14.4)"/><path d="M350 312c16.57 0 30 13.43 30 30v168c0 16.57-13.43 30-30 30H130c-16.57 0-30-13.43-30-30V342c0-16.57 13.43-30 30-30z" stroke="#000" stroke-width="2" fill="none"/><path d="M116.64 302c1.6 1.6 4.48 2.4 7.36 2.8-3.2-.8-6.08-1.6-7.68-3.2.32 0 .32.4.32.4zM113.76 288.8v-.8h1.28c.96.4 9.28 1.6 13.76 4-3.84-3.6-15.36-4.4-15.36-4.4s0 1.6.32 4v-2.8zM180.64 320l1.28.8-.64.8c-.32.4-6.4 10.4-11.2 12 0 0 0-.4.32-.4 4.8-1.6 11.52-12.8 11.52-12.8s-6.72-3.6-11.52-3.6c4.48.4 10.24 3.2 10.24 3.2z" fill="none"/><path d="M183.2 318.4c-.96-.4-8.32-4.4-13.44-4.4-.96 0-1.6.4-2.24.4-1.6.4-2.88 1.6-4.16 3.2V280H130.4v10.4c-4.48-4-15.36-5.2-16.96-5.2l-2.56-.4.32 2.8c0 2 .32 12.4 3.84 16 2.88 3.2 10.24 4 15.36 4.4v34.4h32.96v-6.8c1.28.4 2.88.4 4.48.4 1.28 0 2.24 0 3.2-.4 5.44-1.6 12.16-12.4 12.8-13.6l1.6-2.4-2.24-1.2zm-48.96-12s-.32 0-.96-.4c-2.24 0-5.76-.4-9.28-1.2-2.88-.4-5.76-1.2-7.36-2.8 0 0 0-.4-.32-.4-1.92-2-2.56-6.8-2.56-10-.32-2.4-.32-4-.32-4s11.52.8 15.36 4.4c.96.8 1.92 1.2 2.56 1.6 2.88 3.2 3.84 11.2 3.84 11.6l.32 1.2h-1.28zm36.16 26.8c-.32 0-.32.4-.32.4h-2.56c-4.16 0-9.6-1.6-9.92-1.6l-1.28-.4.64-1.2c.64-1.2 5.76-12 10.56-13.6.64 0 1.28-.4 1.92-.4.32 0 .64 0 .96.4 4.8 0 11.52 3.6 11.52 3.6s-6.72 11.2-11.52 12.8z" fill="#2a6a35"/><use xlink:href="#b" transform="matrix(1,0,0,1,100,520) translate(30.149999999999977 14.4)"/><use xlink:href="#c" transform="matrix(1,0,0,1,100,520) translate(88.04999999999998 14.4)"/><use xlink:href="#d" transform="matrix(1,0,0,1,100,520) translate(172 14.4)"/><path d="M830 260c16.57 0 30 13.43 30 30v260c0 16.57-13.43 30-30 30H570c-16.57 0-30-13.43-30-30V290c0-16.57 13.43-30 30-30z" fill="none"/><path d="M832.5 260c0 1.38-1.12 2.5-2.5 2.5s-2.5-1.12-2.5-2.5 1.12-2.5 2.5-2.5 2.5 1.12 2.5 2.5zm9.26 1.5c0 1.38-1.12 2.5-2.5 2.5s-2.5-1.12-2.5-2.5 1.12-2.5 2.5-2.5 2.5 1.12 2.5 2.5zm8.33 4.3c0 1.37-1.13 2.5-2.5 2.5-1.4 0-2.5-1.13-2.5-2.5 0-1.4 1.1-2.5 2.5-2.5 1.37 0 2.5 1.1 2.5 2.5zm6.6 6.62c0 1.38-1.12 2.5-2.5 2.5s-2.5-1.12-2.5-2.5 1.12-2.5 2.5-2.5 2.5 1.12 2.5 2.5zm4.24 8.34c0 1.38-1.12 2.5-2.5 2.5s-2.5-1.12-2.5-2.5 1.12-2.5 2.5-2.5 2.5 1.12 2.5 2.5zm1.56 9.24c0 1.38-1.12 2.5-2.5 2.5s-2.5-1.12-2.5-2.5 1.12-2.5 2.5-2.5 2.5 1.12 2.5 2.5zm0 10c0 1.38-1.12 2.5-2.5 2.5s-2.5-1.12-2.5-2.5 1.12-2.5 2.5-2.5 2.5 1.12 2.5 2.5zm0 10c0 1.38-1.12 2.5-2.5 2.5s-2.5-1.12-2.5-2.5 1.12-2.5 2.5-2.5 2.5 1.12 2.5 2.5zm0 10c0 1.38-1.12 2.5-2.5 2.5s-2.5-1.12-2.5-2.5 1.12-2.5 2.5-2.5 2.5 1.12 2.5 2.5zm0 10c0 1.38-1.12 2.5-2.5 2.5s-2.5-1.12-2.5-2.5 1.12-2.5 2.5-2.5 2.5 1.12 2.5 2.5zm0 10c0 1.38-1.12 2.5-2.5 2.5s-2.5-1.12-2.5-2.5 1.12-2.5 2.5-2.5 2.5 1.12 2.5 2.5zm0 10c0 1.38-1.12 2.5-2.5 2.5s-2.5-1.12-2.5-2.5 1.12-2.5 2.5-2.5 2.5 1.12 2.5 2.5zm0 10c0 1.38-1.12 2.5-2.5 2.5s-2.5-1.12-2.5-2.5 1.12-2.5 2.5-2.5 2.5 1.12 2.5 2.5zm0 10c0 1.38-1.12 2.5-2.5 2.5s-2.5-1.12-2.5-2.5 1.12-2.5 2.5-2.5 2.5 1.12 2.5 2.5zm0 10c0 1.38-1.12 2.5-2.5 2.5s-2.5-1.12-2.5-2.5 1.12-2.5 2.5-2.5 2.5 1.12 2.5 2.5zm0 10c0 1.38-1.12 2.5-2.5 2.5s-2.5-1.12-2.5-2.5 1.12-2.5 2.5-2.5 2.5 1.12 2.5 2.5zm0 10c0 1.38-1.12 2.5-2.5 2.5s-2.5-1.12-2.5-2.5 1.12-2.5 2.5-2.5 2.5 1.12 2.5 2.5zm0 10c0 1.38-1.12 2.5-2.5 2.5s-2.5-1.12-2.5-2.5 1.12-2.5 2.5-2.5 2.5 1.12 2.5 2.5zm0 10c0 1.38-1.12 2.5-2.5 2.5s-2.5-1.12-2.5-2.5 1.12-2.5 2.5-2.5 2.5 1.12 2.5 2.5zm0 10c0 1.38-1.12 2.5-2.5 2.5s-2.5-1.12-2.5-2.5 1.12-2.5 2.5-2.5 2.5 1.12 2.5 2.5zm0 10c0 1.38-1.12 2.5-2.5 2.5s-2.5-1.12-2.5-2.5 1.12-2.5 2.5-2.5 2.5 1.12 2.5 2.5zm0 10c0 1.38-1.12 2.5-2.5 2.5s-2.5-1.12-2.5-2.5 1.12-2.5 2.5-2.5 2.5 1.12 2.5 2.5zm0 10c0 1.38-1.12 2.5-2.5 2.5s-2.5-1.12-2.5-2.5 1.12-2.5 2.5-2.5 2.5 1.12 2.5 2.5zm0 10c0 1.38-1.12 2.5-2.5 2.5s-2.5-1.12-2.5-2.5 1.12-2.5 2.5-2.5 2.5 1.12 2.5 2.5zm0 10c0 1.38-1.12 2.5-2.5 2.5s-2.5-1.12-2.5-2.5 1.12-2.5 2.5-2.5 2.5 1.12 2.5 2.5zm0 10c0 1.38-1.12 2.5-2.5 2.5s-2.5-1.12-2.5-2.5 1.12-2.5 2.5-2.5 2.5 1.12 2.5 2.5zm0 10c0 1.38-1.12 2.5-2.5 2.5s-2.5-1.12-2.5-2.5 1.12-2.5 2.5-2.5 2.5 1.12 2.5 2.5zm0 10c0 1.38-1.12 2.5-2.5 2.5s-2.5-1.12-2.5-2.5 1.12-2.5 2.5-2.5 2.5 1.12 2.5 2.5zm0 10c0 1.38-1.12 2.5-2.5 2.5s-2.5-1.12-2.5-2.5 1.12-2.5 2.5-2.5 2.5 1.12 2.5 2.5zm0 10c0 1.38-1.12 2.5-2.5 2.5s-2.5-1.12-2.5-2.5 1.12-2.5 2.5-2.5 2.5 1.12 2.5 2.5zm0 10c0 1.38-1.12 2.5-2.5 2.5s-2.5-1.12-2.5-2.5 1.12-2.5 2.5-2.5 2.5 1.12 2.5 2.5zm0 10c0 1.38-1.12 2.5-2.5 2.5s-2.5-1.12-2.5-2.5 1.12-2.5 2.5-2.5 2.5 1.12 2.5 2.5zm-1.5 9.26c0 1.38-1.12 2.5-2.5 2.5s-2.5-1.12-2.5-2.5 1.12-2.5 2.5-2.5 2.5 1.12 2.5 2.5zm-4.3 8.33c0 1.37-1.1 2.5-2.5 2.5-1.37 0-2.5-1.13-2.5-2.5 0-1.4 1.13-2.5 2.5-2.5 1.4 0 2.5 1.1 2.5 2.5zm-6.62 6.6c0 1.38-1.12 2.5-2.5 2.5s-2.5-1.12-2.5-2.5 1.12-2.5 2.5-2.5 2.5 1.12 2.5 2.5zm-8.34 4.24c0 1.38-1.12 2.5-2.5 2.5s-2.5-1.12-2.5-2.5 1.12-2.5 2.5-2.5 2.5 1.12 2.5 2.5zM832.5 580c0 1.38-1.12 2.5-2.5 2.5s-2.5-1.12-2.5-2.5 1.12-2.5 2.5-2.5 2.5 1.12 2.5 2.5zm-10 0c0 1.38-1.12 2.5-2.5 2.5s-2.5-1.12-2.5-2.5 1.12-2.5 2.5-2.5 2.5 1.12 2.5 2.5zm-10 0c0 1.38-1.12 2.5-2.5 2.5s-2.5-1.12-2.5-2.5 1.12-2.5 2.5-2.5 2.5 1.12 2.5 2.5zm-10 0c0 1.38-1.12 2.5-2.5 2.5s-2.5-1.12-2.5-2.5 1.12-2.5 2.5-2.5 2.5 1.12 2.5 2.5zm-10 0c0 1.38-1.12 2.5-2.5 2.5s-2.5-1.12-2.5-2.5 1.12-2.5 2.5-2.5 2.5 1.12 2.5 2.5zm-10 0c0 1.38-1.12 2.5-2.5 2.5s-2.5-1.12-2.5-2.5 1.12-2.5 2.5-2.5 2.5 1.12 2.5 2.5zm-10 0c0 1.38-1.12 2.5-2.5 2.5s-2.5-1.12-2.5-2.5 1.12-2.5 2.5-2.5 2.5 1.12 2.5 2.5zm-10 0c0 1.38-1.12 2.5-2.5 2.5s-2.5-1.12-2.5-2.5 1.12-2.5 2.5-2.5 2.5 1.12 2.5 2.5zm-10 0c0 1.38-1.12 2.5-2.5 2.5s-2.5-1.12-2.5-2.5 1.12-2.5 2.5-2.5 2.5 1.12 2.5 2.5zm-10 0c0 1.38-1.12 2.5-2.5 2.5s-2.5-1.12-2.5-2.5 1.12-2.5 2.5-2.5 2.5 1.12 2.5 2.5zm-10 0c0 1.38-1.12 2.5-2.5 2.5s-2.5-1.12-2.5-2.5 1.12-2.5 2.5-2.5 2.5 1.12 2.5 2.5zm-10 0c0 1.38-1.12 2.5-2.5 2.5s-2.5-1.12-2.5-2.5 1.12-2.5 2.5-2.5 2.5 1.12 2.5 2.5zm-10 0c0 1.38-1.12 2.5-2.5 2.5s-2.5-1.12-2.5-2.5 1.12-2.5 2.5-2.5 2.5 1.12 2.5 2.5zm-10 0c0 1.38-1.12 2.5-2.5 2.5s-2.5-1.12-2.5-2.5 1.12-2.5 2.5-2.5 2.5 1.12 2.5 2.5zm-10 0c0 1.38-1.12 2.5-2.5 2.5s-2.5-1.12-2.5-2.5 1.12-2.5 2.5-2.5 2.5 1.12 2.5 2.5zm-10 0c0 1.38-1.12 2.5-2.5 2.5s-2.5-1.12-2.5-2.5 1.12-2.5 2.5-2.5 2.5 1.12 2.5 2.5zm-10 0c0 1.38-1.12 2.5-2.5 2.5s-2.5-1.12-2.5-2.5 1.12-2.5 2.5-2.5 2.5 1.12 2.5 2.5zm-10 0c0 1.38-1.12 2.5-2.5 2.5s-2.5-1.12-2.5-2.5 1.12-2.5 2.5-2.5 2.5 1.12 2.5 2.5zm-10 0c0 1.38-1.12 2.5-2.5 2.5s-2.5-1.12-2.5-2.5 1.12-2.5 2.5-2.5 2.5 1.12 2.5 2.5zm-10 0c0 1.38-1.12 2.5-2.5 2.5s-2.5-1.12-2.5-2.5 1.12-2.5 2.5-2.5 2.5 1.12 2.5 2.5zm-10 0c0 1.38-1.12 2.5-2.5 2.5s-2.5-1.12-2.5-2.5 1.12-2.5 2.5-2.5 2.5 1.12 2.5 2.5zm-10 0c0 1.38-1.12 2.5-2.5 2.5s-2.5-1.12-2.5-2.5 1.12-2.5 2.5-2.5 2.5 1.12 2.5 2.5zm-10 0c0 1.38-1.12 2.5-2.5 2.5s-2.5-1.12-2.5-2.5 1.12-2.5 2.5-2.5 2.5 1.12 2.5 2.5zm-10 0c0 1.38-1.12 2.5-2.5 2.5s-2.5-1.12-2.5-2.5 1.12-2.5 2.5-2.5 2.5 1.12 2.5 2.5zm-10 0c0 1.38-1.12 2.5-2.5 2.5s-2.5-1.12-2.5-2.5 1.12-2.5 2.5-2.5 2.5 1.12 2.5 2.5zm-10 0c0 1.38-1.12 2.5-2.5 2.5s-2.5-1.12-2.5-2.5 1.12-2.5 2.5-2.5 2.5 1.12 2.5 2.5zm-10 0c0 1.38-1.12 2.5-2.5 2.5s-2.5-1.12-2.5-2.5 1.12-2.5 2.5-2.5 2.5 1.12 2.5 2.5zm-9.26-1.5c0 1.38-1.12 2.5-2.5 2.5s-2.5-1.12-2.5-2.5 1.12-2.5 2.5-2.5 2.5 1.12 2.5 2.5zm-8.33-4.3c0 1.4-1.1 2.5-2.5 2.5-1.37 0-2.5-1.1-2.5-2.5 0-1.37 1.13-2.5 2.5-2.5 1.4 0 2.5 1.13 2.5 2.5zm-6.6-6.62c0 1.38-1.12 2.5-2.5 2.5s-2.5-1.12-2.5-2.5 1.12-2.5 2.5-2.5 2.5 1.12 2.5 2.5zm-4.24-8.34c0 1.38-1.12 2.5-2.5 2.5s-2.5-1.12-2.5-2.5 1.12-2.5 2.5-2.5 2.5 1.12 2.5 2.5zM542.5 550c0 1.38-1.12 2.5-2.5 2.5s-2.5-1.12-2.5-2.5 1.12-2.5 2.5-2.5 2.5 1.12 2.5 2.5zm0-10c0 1.38-1.12 2.5-2.5 2.5s-2.5-1.12-2.5-2.5 1.12-2.5 2.5-2.5 2.5 1.12 2.5 2.5zm0-10c0 1.38-1.12 2.5-2.5 2.5s-2.5-1.12-2.5-2.5 1.12-2.5 2.5-2.5 2.5 1.12 2.5 2.5zm0-10c0 1.38-1.12 2.5-2.5 2.5s-2.5-1.12-2.5-2.5 1.12-2.5 2.5-2.5 2.5 1.12 2.5 2.5zm0-10c0 1.38-1.12 2.5-2.5 2.5s-2.5-1.12-2.5-2.5 1.12-2.5 2.5-2.5 2.5 1.12 2.5 2.5zm0-10c0 1.38-1.12 2.5-2.5 2.5s-2.5-1.12-2.5-2.5 1.12-2.5 2.5-2.5 2.5 1.12 2.5 2.5zm0-10c0 1.38-1.12 2.5-2.5 2.5s-2.5-1.12-2.5-2.5 1.12-2.5 2.5-2.5 2.5 1.12 2.5 2.5zm0-10c0 1.38-1.12 2.5-2.5 2.5s-2.5-1.12-2.5-2.5 1.12-2.5 2.5-2.5 2.5 1.12 2.5 2.5zm0-10c0 1.38-1.12 2.5-2.5 2.5s-2.5-1.12-2.5-2.5 1.12-2.5 2.5-2.5 2.5 1.12 2.5 2.5zm0-10c0 1.38-1.12 2.5-2.5 2.5s-2.5-1.12-2.5-2.5 1.12-2.5 2.5-2.5 2.5 1.12 2.5 2.5zm0-10c0 1.38-1.12 2.5-2.5 2.5s-2.5-1.12-2.5-2.5 1.12-2.5 2.5-2.5 2.5 1.12 2.5 2.5zm0-10c0 1.38-1.12 2.5-2.5 2.5s-2.5-1.12-2.5-2.5 1.12-2.5 2.5-2.5 2.5 1.12 2.5 2.5zm0-10c0 1.38-1.12 2.5-2.5 2.5s-2.5-1.12-2.5-2.5 1.12-2.5 2.5-2.5 2.5 1.12 2.5 2.5zm0-10c0 1.38-1.12 2.5-2.5 2.5s-2.5-1.12-2.5-2.5 1.12-2.5 2.5-2.5 2.5 1.12 2.5 2.5zm0-10c0 1.38-1.12 2.5-2.5 2.5s-2.5-1.12-2.5-2.5 1.12-2.5 2.5-2.5 2.5 1.12 2.5 2.5zm0-10c0 1.38-1.12 2.5-2.5 2.5s-2.5-1.12-2.5-2.5 1.12-2.5 2.5-2.5 2.5 1.12 2.5 2.5zm0-10c0 1.38-1.12 2.5-2.5 2.5s-2.5-1.12-2.5-2.5 1.12-2.5 2.5-2.5 2.5 1.12 2.5 2.5zm0-10c0 1.38-1.12 2.5-2.5 2.5s-2.5-1.12-2.5-2.5 1.12-2.5 2.5-2.5 2.5 1.12 2.5 2.5zm0-10c0 1.38-1.12 2.5-2.5 2.5s-2.5-1.12-2.5-2.5 1.12-2.5 2.5-2.5 2.5 1.12 2.5 2.5zm0-10c0 1.38-1.12 2.5-2.5 2.5s-2.5-1.12-2.5-2.5 1.12-2.5 2.5-2.5 2.5 1.12 2.5 2.5zm0-10c0 1.38-1.12 2.5-2.5 2.5s-2.5-1.12-2.5-2.5 1.12-2.5 2.5-2.5 2.5 1.12 2.5 2.5zm0-10c0 1.38-1.12 2.5-2.5 2.5s-2.5-1.12-2.5-2.5 1.12-2.5 2.5-2.5 2.5 1.12 2.5 2.5zm0-10c0 1.38-1.12 2.5-2.5 2.5s-2.5-1.12-2.5-2.5 1.12-2.5 2.5-2.5 2.5 1.12 2.5 2.5zm0-10c0 1.38-1.12 2.5-2.5 2.5s-2.5-1.12-2.5-2.5 1.12-2.5 2.5-2.5 2.5 1.12 2.5 2.5zm0-10c0 1.38-1.12 2.5-2.5 2.5s-2.5-1.12-2.5-2.5 1.12-2.5 2.5-2.5 2.5 1.12 2.5 2.5zm0-10c0 1.38-1.12 2.5-2.5 2.5s-2.5-1.12-2.5-2.5 1.12-2.5 2.5-2.5 2.5 1.12 2.5 2.5zm0-10c0 1.38-1.12 2.5-2.5 2.5s-2.5-1.12-2.5-2.5 1.12-2.5 2.5-2.5 2.5 1.12 2.5 2.5zm1.5-9.26c0 1.38-1.12 2.5-2.5 2.5s-2.5-1.12-2.5-2.5 1.12-2.5 2.5-2.5 2.5 1.12 2.5 2.5zm4.3-8.33c0 1.4-1.13 2.5-2.5 2.5-1.4 0-2.5-1.1-2.5-2.5 0-1.37 1.1-2.5 2.5-2.5 1.37 0 2.5 1.13 2.5 2.5zm6.62-6.6c0 1.38-1.12 2.5-2.5 2.5s-2.5-1.12-2.5-2.5 1.12-2.5 2.5-2.5 2.5 1.12 2.5 2.5zm8.34-4.24c0 1.38-1.12 2.5-2.5 2.5s-2.5-1.12-2.5-2.5 1.12-2.5 2.5-2.5 2.5 1.12 2.5 2.5zm9.24-1.56c0 1.38-1.12 2.5-2.5 2.5s-2.5-1.12-2.5-2.5 1.12-2.5 2.5-2.5 2.5 1.12 2.5 2.5zm10 0c0 1.38-1.12 2.5-2.5 2.5s-2.5-1.12-2.5-2.5 1.12-2.5 2.5-2.5 2.5 1.12 2.5 2.5zm10 0c0 1.38-1.12 2.5-2.5 2.5s-2.5-1.12-2.5-2.5 1.12-2.5 2.5-2.5 2.5 1.12 2.5 2.5zm10 0c0 1.38-1.12 2.5-2.5 2.5s-2.5-1.12-2.5-2.5 1.12-2.5 2.5-2.5 2.5 1.12 2.5 2.5zm10 0c0 1.38-1.12 2.5-2.5 2.5s-2.5-1.12-2.5-2.5 1.12-2.5 2.5-2.5 2.5 1.12 2.5 2.5zm10 0c0 1.38-1.12 2.5-2.5 2.5s-2.5-1.12-2.5-2.5 1.12-2.5 2.5-2.5 2.5 1.12 2.5 2.5zm10 0c0 1.38-1.12 2.5-2.5 2.5s-2.5-1.12-2.5-2.5 1.12-2.5 2.5-2.5 2.5 1.12 2.5 2.5zm10 0c0 1.38-1.12 2.5-2.5 2.5s-2.5-1.12-2.5-2.5 1.12-2.5 2.5-2.5 2.5 1.12 2.5 2.5zm10 0c0 1.38-1.12 2.5-2.5 2.5s-2.5-1.12-2.5-2.5 1.12-2.5 2.5-2.5 2.5 1.12 2.5 2.5zm10 0c0 1.38-1.12 2.5-2.5 2.5s-2.5-1.12-2.5-2.5 1.12-2.5 2.5-2.5 2.5 1.12 2.5 2.5zm10 0c0 1.38-1.12 2.5-2.5 2.5s-2.5-1.12-2.5-2.5 1.12-2.5 2.5-2.5 2.5 1.12 2.5 2.5zm10 0c0 1.38-1.12 2.5-2.5 2.5s-2.5-1.12-2.5-2.5 1.12-2.5 2.5-2.5 2.5 1.12 2.5 2.5zm10 0c0 1.38-1.12 2.5-2.5 2.5s-2.5-1.12-2.5-2.5 1.12-2.5 2.5-2.5 2.5 1.12 2.5 2.5zm10 0c0 1.38-1.12 2.5-2.5 2.5s-2.5-1.12-2.5-2.5 1.12-2.5 2.5-2.5 2.5 1.12 2.5 2.5zm10 0c0 1.38-1.12 2.5-2.5 2.5s-2.5-1.12-2.5-2.5 1.12-2.5 2.5-2.5 2.5 1.12 2.5 2.5zm10 0c0 1.38-1.12 2.5-2.5 2.5s-2.5-1.12-2.5-2.5 1.12-2.5 2.5-2.5 2.5 1.12 2.5 2.5zm10 0c0 1.38-1.12 2.5-2.5 2.5s-2.5-1.12-2.5-2.5 1.12-2.5 2.5-2.5 2.5 1.12 2.5 2.5zm10 0c0 1.38-1.12 2.5-2.5 2.5s-2.5-1.12-2.5-2.5 1.12-2.5 2.5-2.5 2.5 1.12 2.5 2.5zm10 0c0 1.38-1.12 2.5-2.5 2.5s-2.5-1.12-2.5-2.5 1.12-2.5 2.5-2.5 2.5 1.12 2.5 2.5zm10 0c0 1.38-1.12 2.5-2.5 2.5s-2.5-1.12-2.5-2.5 1.12-2.5 2.5-2.5 2.5 1.12 2.5 2.5zm10 0c0 1.38-1.12 2.5-2.5 2.5s-2.5-1.12-2.5-2.5 1.12-2.5 2.5-2.5 2.5 1.12 2.5 2.5zm10 0c0 1.38-1.12 2.5-2.5 2.5s-2.5-1.12-2.5-2.5 1.12-2.5 2.5-2.5 2.5 1.12 2.5 2.5zm10 0c0 1.38-1.12 2.5-2.5 2.5s-2.5-1.12-2.5-2.5 1.12-2.5 2.5-2.5 2.5 1.12 2.5 2.5zm10 0c0 1.38-1.12 2.5-2.5 2.5s-2.5-1.12-2.5-2.5 1.12-2.5 2.5-2.5 2.5 1.12 2.5 2.5zm10 0c0 1.38-1.12 2.5-2.5 2.5s-2.5-1.12-2.5-2.5 1.12-2.5 2.5-2.5 2.5 1.12 2.5 2.5zm10 0c0 1.38-1.12 2.5-2.5 2.5s-2.5-1.12-2.5-2.5 1.12-2.5 2.5-2.5 2.5 1.12 2.5 2.5z"/><use xlink:href="#e" transform="matrix(1,0,0,1,540,560) translate(101.57499999999999 14.4)"/><path d="M810 312c16.57 0 30 13.43 30 30v168c0 16.57-13.43 30-30 30H590c-16.57 0-30-13.43-30-30V342c0-16.57 13.43-30 30-30z" stroke="#000" stroke-width="2" fill="none"/><path d="M576.64 302c1.6 1.6 4.48 2.4 7.36 2.8-3.2-.8-6.08-1.6-7.68-3.2.32 0 .32.4.32.4zM573.76 288.8v-.8h1.28c.96.4 9.28 1.6 13.76 4-3.84-3.6-15.36-4.4-15.36-4.4s0 1.6.32 4v-2.8zM640.64 320l1.28.8-.64.8c-.32.4-6.4 10.4-11.2 12 0 0 0-.4.32-.4 4.8-1.6 11.52-12.8 11.52-12.8s-6.72-3.6-11.52-3.6c4.48.4 10.24 3.2 10.24 3.2z" fill="none"/><path d="M643.2 318.4c-.96-.4-8.32-4.4-13.44-4.4-.96 0-1.6.4-2.24.4-1.6.4-2.88 1.6-4.16 3.2V280H590.4v10.4c-4.48-4-15.36-5.2-16.96-5.2l-2.56-.4.32 2.8c0 2 .32 12.4 3.84 16 2.88 3.2 10.24 4 15.36 4.4v34.4h32.96v-6.8c1.28.4 2.88.4 4.48.4 1.28 0 2.24 0 3.2-.4 5.44-1.6 12.16-12.4 12.8-13.6l1.6-2.4-2.24-1.2zm-48.96-12s-.32 0-.96-.4c-2.24 0-5.76-.4-9.28-1.2-2.88-.4-5.76-1.2-7.36-2.8 0 0 0-.4-.32-.4-1.92-2-2.56-6.8-2.56-10-.32-2.4-.32-4-.32-4s11.52.8 15.36 4.4c.96.8 1.92 1.2 2.56 1.6 2.88 3.2 3.84 11.2 3.84 11.6l.32 1.2h-1.28zm36.16 26.8c-.32 0-.32.4-.32.4h-2.56c-4.16 0-9.6-1.6-9.92-1.6l-1.28-.4.64-1.2c.64-1.2 5.76-12 10.56-13.6.64 0 1.28-.4 1.92-.4.32 0 .64 0 .96.4 4.8 0 11.52 3.6 11.52 3.6s-6.72 11.2-11.52 12.8z" fill="#2a6a35"/><use xlink:href="#b" transform="matrix(1,0,0,1,560,520) translate(30.149999999999977 14.4)"/><use xlink:href="#c" transform="matrix(1,0,0,1,560,520) translate(88.04999999999998 14.4)"/><use xlink:href="#d" transform="matrix(1,0,0,1,560,520) translate(172 14.4)"/><path d="M136.6 439.3l-11.6 2.2v-62.8l11.6 2.2v58.4zM151 443l-14.4 3.4v-72.6l14.4 3.5V443zM169.6 446.8l-18.6 5.7v-84.7l18.6 5.6v73.4zM219.3 439.5l-49.7 20.7V360l49.7 20.8v58.7z" fill="#f58535"/><path d="M159.7 364.1l9.9-4.1v100.2l-9.9-4.1v-92zM143.4 371l7.6-3.2v84.7l-7.6-3.2V371zM130.5 376.4l6.1-2.6v72.6l-6.1-2.5v-67.5zM125 378.7l-5 2v58.8l5 2.1v-62.9z" fill="#9e5622"/><use xlink:href="#f" transform="matrix(1,0,0,1,120,460) translate(17.025 14.4)"/><use xlink:href="#g" transform="matrix(1,0,0,1,120,460) translate(32.525 36)"/><path d="M596.6 439.3l-11.6 2.2v-62.8l11.6 2.2v58.4zM611 443l-14.4 3.4v-72.6l14.4 3.5V443zM629.6 446.8l-18.6 5.7v-84.7l18.6 5.6v73.4z" fill="#f58535"/><path d="M679.3 439.5l-49.7 20.7V360l49.7 20.8v58.7z" fill="#f58535"/><path d="M619.7 364.1l9.9-4.1v100.2l-9.9-4.1v-92zM603.4 371l7.6-3.2v84.7l-7.6-3.2V371zM590.5 376.4l6.1-2.6v72.6l-6.1-2.5v-67.5zM585 378.7l-5 2v58.8l5 2.1v-62.9z" fill="#9e5622"/><use xlink:href="#f" transform="matrix(1,0,0,1,580,460) translate(17.025 14.4)"/><use xlink:href="#g" transform="matrix(1,0,0,1,580,460) translate(32.525 36)"/><path d="M509.1 60.6v-4.1c0-9.4 6.5-17.3 6.9-17.8v4.1c-.4.4-6.9 8.3-6.9 17.8z" fill="#9e5622"/><path d="M516 38.7v4.1c-.2.2-1.8 2.2-3.4 5.2v-4c1.6-3.1 3.2-5.1 3.4-5.3M512.6 44v4c-.9 1.6-1.7 3.5-2.4 5.5v-4c.7-2.1 1.5-3.9 2.4-5.5M510.2 49.5v4c-.4 1.3-.7 2.7-.9 4.1v-4.1c.2-1.4.5-2.7.9-4M509.3 53.5v4.1c-.1.9-.2 1.9-.2 3v-4.1c0-1 .1-2 .2-3M429.2 57.6v4c0-8.3-6.6-16.8-6.9-17.3v-4c.3.5 6.9 8.9 6.9 17.3z" fill="#9e5622"/><path d="M429.2 57.6v4c0-8.3-6.6-16.8-6.9-17.3v-4c.3.5 6.9 8.9 6.9 17.3M421.9 85.4v-4c0 1.4.1 2.9.4 4.7 4.2 27.1 37.8 15.7 48.7 29.3v4.1c-10.9-13.7-44.5-2.3-48.7-29.4-.3-1.7-.4-3.3-.4-4.7z" fill="#9e5622"/><path d="M471 115.4v4.1c-10.9-13.7-44.5-2.3-48.7-29.4-.3-1.7-.4-3.3-.4-4.7v-4c0 1.4.1 2.9.4 4.7 4.2 27.1 37.8 15.7 48.7 29.3" fill="#9e5622"/><path d="M470.7 20c.6 0 1.1.2 1.2.4 5 5.8 10 7.8 14.5 7.8 9 0 15.5-7.5 15.9-7.9L516 38.7c-.4.5-7.3 8.8-6.9 18.6.5 11.5 10.9 15.7 8.3 28.8-4.6 23.5-26.8 14-44.8 29.3-.4.3-.7.4-.9.4-.4 0-.6-.4-.7-.4-10.9-13.6-44.5-2.2-48.7-29.3-2.3-14.9 6.4-16.7 6.8-27.8.4-8.6-6.4-17.5-6.8-18l16-20c.3.4 7 7.3 16.3 7.3 4.7 0 10-1.8 15.2-7.3.3-.2.6-.3.9-.3z" fill="#f58535"/><path d="M517.8 82.1v4c0 1.3-.1 2.6-.4 4-4.6 23.6-26.8 14-44.8 29.4-.4.3-.7.4-.9.4-.4 0-.6-.4-.7-.4v-4.1c.1 0 .3.4.7.4.2 0 .5-.1.9-.4 18-15.3 40.2-5.8 44.8-29.3.3-1.5.4-2.8.4-4z" fill="#9e5622"/><path d="M517.8 82.1v4c0 .9 0 1.8-.2 2.8v-4.1c.2-.9.2-1.8.2-2.7" fill="#9e5622"/><path d="M517.6 84.8v4.1c0 .4-.1.8-.2 1.2-.2 1.2-.5 2.3-.8 3.3v-4.1c.3-1 .6-2.1.8-3.2.1-.4.2-.9.2-1.3M516.6 89.3v4.1c-.5 1.5-1 2.9-1.7 4.1v-4c.7-1.3 1.2-2.6 1.7-4.2M514.9 93.5v4c-7.6 14.2-26.6 8.6-42.3 22-.4.3-.7.4-.9.4-.4 0-.6-.4-.7-.4v-4.1c.1 0 .3.4.7.4.2 0 .5-.1.9-.4 15.7-13.4 34.7-7.8 42.3-21.9" fill="#9e5622"/><use xlink:href="#h" transform="matrix(1,0,0,1,420,120) translate(21.525 14.4)"/><use xlink:href="#i" transform="matrix(1,0,0,1,420,120) translate(29.525 36)"/><use xlink:href="#j" transform="matrix(1,0,0,1,430,30) translate(16.194444444444443 39)"/><path d="M310 444.5l50-15.7-50-6.5-50 6.5 50 15.7z" fill="#a7bf83"/><path d="M335 373.8v52.8l-40 8.3V360l40 13.8z" fill="#769b3f"/><path d="M308.4 382.4v43.3l-29.9 4.7v-53.9l29.9 5.9z" fill="#769b3f"/><path d="M299.3 415.8v20.1l10.7 2.9v-21.9l-10.7-1.1zM295 360v74.8l-11.6-3.1v-66.5L295 360zM310 460v-15.5l-50-15.7v9.1l50 22.1z" fill="#4c6429"/><path d="M360 428.8v9.1L310 460v-15.5l50-15.7z" fill="#769b3f"/><path d="M270 379.3v48.8l8.5 2.2v-53.8l-8.5 2.8z" fill="#4c6429"/><path d="M346 429.2v-15.4l-36 3.1v21.9l36-9.6z" fill="#769b3f"/><path d="M310 416.9l36-3.1h-12.2l-34.5 2 10.7 1.1z" fill="#a7bf83"/><use xlink:href="#f" transform="matrix(1,0,0,1,260,460) translate(17.025 14.4)"/><use xlink:href="#k" transform="matrix(1,0,0,1,260,460) translate(1.3999999999999986 36)"/><path d="M770 444.5l50-15.7-50-6.5-50 6.5 50 15.7z" fill="#a7bf83"/><path d="M795 373.8v52.8l-40 8.3V360l40 13.8z" fill="#769b3f"/><path d="M768.4 382.4v43.3l-29.9 4.7v-53.9l29.9 5.9z" fill="#769b3f"/><path d="M759.3 415.8v20.1l10.7 2.9v-21.9l-10.7-1.1zM755 360v74.8l-11.6-3.1v-66.5L755 360zM770 460v-15.5l-50-15.7v9.1l50 22.1z" fill="#4c6429"/><path d="M820 428.8v9.1L770 460v-15.5l50-15.7z" fill="#769b3f"/><path d="M730 379.3v48.8l8.5 2.2v-53.8l-8.5 2.8z" fill="#4c6429"/><path d="M806 429.2v-15.4l-36 3.1v21.9l36-9.6z" fill="#769b3f"/><path d="M770 416.9l36-3.1h-12.2l-34.5 2 10.7 1.1z" fill="#a7bf83"/><g><use xlink:href="#f" transform="matrix(1,0,0,1,720,460) translate(17.025 14.4)"/><use xlink:href="#k" transform="matrix(1,0,0,1,720,460) translate(1.3999999999999986 36)"/></g><path d="M517.63 80h181.72v177.5" stroke="#000" stroke-width="2" fill="none"/><path d="M517.63 80l-.13-1h.13z"/><path d="M699.35 257.5l-4.64-14.27H704z" stroke="#000" stroke-width="2"/><path d="M422 80H238.66v177.5" stroke="#000" stroke-width="2" fill="none"/><path d="M422 80v-1h.12z"/><path d="M238.65 257.5l-4.63-14.27h9.27z" stroke="#000" stroke-width="2"/><defs><path d="M100-194c63 0 86 42 84 106H49c0 40 14 67 53 68 26 1 43-12 49-29l28 8c-11 28-37 45-77 45C44 4 14-33 15-96c1-61 26-98 85-98zm52 81c6-60-76-77-97-28-3 7-6 17-6 28h103" id="l"/><path d="M84 4C-5 8 30-112 23-190h32v120c0 31 7 50 39 49 72-2 45-101 50-169h31l1 190h-30c-1-10 1-25-2-33-11 22-28 36-60 37" id="m"/><path d="M16-82v-28h88v28H16" id="n"/><path d="M96-169c-40 0-48 33-48 73s9 75 48 75c24 0 41-14 43-38l32 2c-6 37-31 61-74 61-59 0-76-41-82-99-10-93 101-131 147-64 4 7 5 14 7 22l-32 3c-4-21-16-35-41-35" id="o"/><path d="M117-194c89-4 53 116 60 194h-32v-121c0-31-8-49-39-48C34-167 62-67 57 0H25l-1-190h30c1 10-1 24 2 32 11-22 29-35 61-36" id="p"/><path d="M59-47c-2 24 18 29 38 22v24C64 9 27 4 27-40v-127H5v-23h24l9-43h21v43h35v23H59v120" id="q"/><path d="M114-163C36-179 61-72 57 0H25l-1-190h30c1 12-1 29 2 39 6-27 23-49 58-41v29" id="r"/><path d="M141-36C126-15 110 5 73 4 37 3 15-17 15-53c-1-64 63-63 125-63 3-35-9-54-41-54-24 1-41 7-42 31l-33-3c5-37 33-52 76-52 45 0 72 20 72 64v82c-1 20 7 32 28 27v20c-31 9-61-2-59-35zM48-53c0 20 12 33 32 33 41-3 63-29 60-74-43 2-92-5-92 41" id="s"/><path d="M24 0v-261h32V0H24" id="t"/><path d="M27 0v-27h64v-190l-56 39v-29l58-41h29v221h61V0H27" id="u"/><g id="a"><use transform="matrix(0.05,0,0,0.05,0,0)" xlink:href="#l"/><use transform="matrix(0.05,0,0,0.05,10,0)" xlink:href="#m"/><use transform="matrix(0.05,0,0,0.05,20,0)" xlink:href="#n"/><use transform="matrix(0.05,0,0,0.05,25.950000000000003,0)" xlink:href="#o"/><use transform="matrix(0.05,0,0,0.05,34.95,0)" xlink:href="#l"/><use transform="matrix(0.05,0,0,0.05,44.95,0)" xlink:href="#p"/><use transform="matrix(0.05,0,0,0.05,54.95,0)" xlink:href="#q"/><use transform="matrix(0.05,0,0,0.05,59.95,0)" xlink:href="#r"/><use transform="matrix(0.05,0,0,0.05,65.9,0)" xlink:href="#s"/><use transform="matrix(0.05,0,0,0.05,75.9,0)" xlink:href="#t"/><use transform="matrix(0.05,0,0,0.05,79.85000000000001,0)" xlink:href="#n"/><use transform="matrix(0.05,0,0,0.05,85.80000000000001,0)" xlink:href="#u"/></g><path d="M30 0v-248h187v28H63v79h144v27H63v87h162V0H30" id="v"/><path d="M135-143c-3-34-86-38-87 0 15 53 115 12 119 90S17 21 10-45l28-5c4 36 97 45 98 0-10-56-113-15-118-90-4-57 82-63 122-42 12 7 21 19 24 35" id="w"/><path d="M24-231v-30h32v30H24zM24 0v-190h32V0H24" id="x"/><g id="b"><use transform="matrix(0.05,0,0,0.05,0,0)" xlink:href="#v"/><use transform="matrix(0.05,0,0,0.05,12,0)" xlink:href="#t"/><use transform="matrix(0.05,0,0,0.05,15.949999999999998,0)" xlink:href="#s"/><use transform="matrix(0.05,0,0,0.05,25.950000000000003,0)" xlink:href="#w"/><use transform="matrix(0.05,0,0,0.05,34.95,0)" xlink:href="#q"/><use transform="matrix(0.05,0,0,0.05,39.95,0)" xlink:href="#x"/><use transform="matrix(0.05,0,0,0.05,43.900000000000006,0)" xlink:href="#o"/></g><path d="M160-131c35 5 61 23 61 61C221 17 115-2 30 0v-248c76 3 177-17 177 60 0 33-19 50-47 57zm-97-11c50-1 110 9 110-42 0-47-63-36-110-37v79zm0 115c55-2 124 14 124-45 0-56-70-42-124-44v89" id="y"/><path d="M143 0L79-87 56-68V0H24v-261h32v163l83-92h37l-77 82L181 0h-38" id="z"/><g id="c"><use transform="matrix(0.05,0,0,0.05,0,0)" xlink:href="#y"/><use transform="matrix(0.05,0,0,0.05,12,0)" xlink:href="#l"/><use transform="matrix(0.05,0,0,0.05,22,0)" xlink:href="#s"/><use transform="matrix(0.05,0,0,0.05,32,0)" xlink:href="#p"/><use transform="matrix(0.05,0,0,0.05,42,0)" xlink:href="#w"/><use transform="matrix(0.05,0,0,0.05,51,0)" xlink:href="#q"/><use transform="matrix(0.05,0,0,0.05,56,0)" xlink:href="#s"/><use transform="matrix(0.05,0,0,0.05,66,0)" xlink:href="#t"/><use transform="matrix(0.05,0,0,0.05,69.95,0)" xlink:href="#z"/></g><path d="M212-179c-10-28-35-45-73-45-59 0-87 40-87 99 0 60 29 101 89 101 43 0 62-24 78-52l27 14C228-24 195 4 139 4 59 4 22-46 18-125c-6-104 99-153 187-111 19 9 31 26 39 46" id="A"/><path d="M100-194c62-1 85 37 85 99 1 63-27 99-86 99S16-35 15-95c0-66 28-99 85-99zM99-20c44 1 53-31 53-75 0-43-8-75-51-75s-53 32-53 75 10 74 51 75" id="B"/><g id="d"><use transform="matrix(0.05,0,0,0.05,0,0)" xlink:href="#A"/><use transform="matrix(0.05,0,0,0.05,12.950000000000001,0)" xlink:href="#B"/><use transform="matrix(0.05,0,0,0.05,22.950000000000003,0)" xlink:href="#p"/><use transform="matrix(0.05,0,0,0.05,32.95,0)" xlink:href="#q"/><use transform="matrix(0.05,0,0,0.05,37.95,0)" xlink:href="#s"/><use transform="matrix(0.05,0,0,0.05,47.95,0)" xlink:href="#x"/><use transform="matrix(0.05,0,0,0.05,51.900000000000006,0)" xlink:href="#p"/><use transform="matrix(0.05,0,0,0.05,61.900000000000006,0)" xlink:href="#l"/><use transform="matrix(0.05,0,0,0.05,71.9,0)" xlink:href="#r"/></g><path d="M115-194c55 1 70 41 70 98S169 2 115 4C84 4 66-9 55-30l1 105H24l-1-265h31l2 30c10-21 28-34 59-34zm-8 174c40 0 45-34 45-75s-6-73-45-74c-42 0-51 32-51 76 0 43 10 73 51 73" id="C"/><path d="M106-169C34-169 62-67 57 0H25v-261h32l-1 103c12-21 28-36 61-36 89 0 53 116 60 194h-32v-121c2-32-8-49-39-48" id="D"/><g id="e"><use transform="matrix(0.05,0,0,0.05,0,0)" xlink:href="#s"/><use transform="matrix(0.05,0,0,0.05,10,0)" xlink:href="#C"/><use transform="matrix(0.05,0,0,0.05,20,0)" xlink:href="#n"/><use transform="matrix(0.05,0,0,0.05,25.950000000000003,0)" xlink:href="#p"/><use transform="matrix(0.05,0,0,0.05,35.95,0)" xlink:href="#B"/><use transform="matrix(0.05,0,0,0.05,45.95,0)" xlink:href="#r"/><use transform="matrix(0.05,0,0,0.05,51.900000000000006,0)" xlink:href="#q"/><use transform="matrix(0.05,0,0,0.05,56.900000000000006,0)" xlink:href="#D"/><use transform="matrix(0.05,0,0,0.05,66.9,0)" xlink:href="#l"/><use transform="matrix(0.05,0,0,0.05,76.9,0)" xlink:href="#s"/><use transform="matrix(0.05,0,0,0.05,86.9,0)" xlink:href="#w"/><use transform="matrix(0.05,0,0,0.05,95.9,0)" xlink:href="#q"/><use transform="matrix(0.05,0,0,0.05,100.9,0)" xlink:href="#n"/><use transform="matrix(0.05,0,0,0.05,106.85000000000001,0)" xlink:href="#u"/></g><path d="M205 0l-28-72H64L36 0H1l101-248h38L239 0h-34zm-38-99l-47-123c-12 45-31 82-46 123h93" id="E"/><path d="M210-169c-67 3-38 105-44 169h-31v-121c0-29-5-50-35-48C34-165 62-65 56 0H25l-1-190h30c1 10-1 24 2 32 10-44 99-50 107 0 11-21 27-35 58-36 85-2 47 119 55 194h-31v-121c0-29-5-49-35-48" id="F"/><path d="M9 0v-24l116-142H16v-24h144v24L44-24h123V0H9" id="G"/><g id="f"><use transform="matrix(0.05,0,0,0.05,0,0)" xlink:href="#E"/><use transform="matrix(0.05,0,0,0.05,12,0)" xlink:href="#F"/><use transform="matrix(0.05,0,0,0.05,26.950000000000003,0)" xlink:href="#s"/><use transform="matrix(0.05,0,0,0.05,36.95,0)" xlink:href="#G"/><use transform="matrix(0.05,0,0,0.05,45.95,0)" xlink:href="#B"/><use transform="matrix(0.05,0,0,0.05,55.95,0)" xlink:href="#p"/></g><path d="M101-251c82-7 93 87 43 132L82-64C71-53 59-42 53-27h129V0H18c2-99 128-94 128-182 0-28-16-43-45-43s-46 15-49 41l-32-3c6-41 34-60 81-64" id="H"/><g id="g"><use transform="matrix(0.05,0,0,0.05,0,0)" xlink:href="#v"/><use transform="matrix(0.05,0,0,0.05,12,0)" xlink:href="#A"/><use transform="matrix(0.05,0,0,0.05,24.950000000000003,0)" xlink:href="#H"/></g><path d="M197 0v-115H63V0H30v-248h33v105h134v-105h34V0h-34" id="I"/><path d="M85-194c31 0 48 13 60 33l-1-100h32l1 261h-30c-2-10 0-23-3-31C134-8 116 4 85 4 32 4 16-35 15-94c0-66 23-100 70-100zm9 24c-40 0-46 34-46 75 0 40 6 74 45 74 42 0 51-32 51-76 0-42-9-74-50-73" id="J"/><g id="h"><use transform="matrix(0.05,0,0,0.05,0,0)" xlink:href="#I"/><use transform="matrix(0.05,0,0,0.05,12.950000000000001,0)" xlink:href="#B"/><use transform="matrix(0.05,0,0,0.05,22.950000000000003,0)" xlink:href="#w"/><use transform="matrix(0.05,0,0,0.05,31.950000000000003,0)" xlink:href="#q"/><use transform="matrix(0.05,0,0,0.05,36.95,0)" xlink:href="#l"/><use transform="matrix(0.05,0,0,0.05,46.95,0)" xlink:href="#J"/></g><path d="M209 0H11v-25l151-195H24v-28h176v25L50-27h159V0" id="K"/><g id="i"><use transform="matrix(0.05,0,0,0.05,0,0)" xlink:href="#K"/><use transform="matrix(0.05,0,0,0.05,10.950000000000001,0)" xlink:href="#B"/><use transform="matrix(0.05,0,0,0.05,20.950000000000003,0)" xlink:href="#p"/><use transform="matrix(0.05,0,0,0.05,30.950000000000003,0)" xlink:href="#l"/></g><path fill="#fff" d="M210 0H11v-37l134-170H24v-41h178v36L68-41h142V0" id="L"/><path fill="#fff" d="M110-194c64 0 96 36 96 99 0 64-35 99-97 99-61 0-95-36-95-99 0-62 34-99 96-99zm-1 164c35 0 45-28 45-65 0-40-10-65-43-65-34 0-45 26-45 65 0 36 10 65 43 65" id="M"/><path fill="#fff" d="M135-194c87-1 58 113 63 194h-50c-7-57 23-157-34-157-59 0-34 97-39 157H25l-1-190h47c2 12-1 28 3 38 12-26 28-41 61-42" id="N"/><path fill="#fff" d="M185-48c-13 30-37 53-82 52C43 2 14-33 14-96s30-98 90-98c62 0 83 45 84 108H66c0 31 8 55 39 56 18 0 30-7 34-22zm-45-69c5-46-57-63-70-21-2 6-4 13-4 21h74" id="O"/><g id="j"><use transform="matrix(0.05555555555555555,0,0,0.05555555555555555,0,0)" xlink:href="#L"/><use transform="matrix(0.05555555555555555,0,0,0.05555555555555555,12.166666666666666,0)" xlink:href="#M"/><use transform="matrix(0.05555555555555555,0,0,0.05555555555555555,24.333333333333332,0)" xlink:href="#N"/><use transform="matrix(0.05555555555555555,0,0,0.05555555555555555,36.5,0)" xlink:href="#O"/></g><path d="M266 0h-40l-56-210L115 0H75L2-248h35L96-30l15-64 43-154h32l59 218 59-218h35" id="P"/><g id="k"><use transform="matrix(0.05,0,0,0.05,0,0)" xlink:href="#A"/><use transform="matrix(0.05,0,0,0.05,12.950000000000001,0)" xlink:href="#t"/><use transform="matrix(0.05,0,0,0.05,16.900000000000002,0)" xlink:href="#B"/><use transform="matrix(0.05,0,0,0.05,26.900000000000002,0)" xlink:href="#m"/><use transform="matrix(0.05,0,0,0.05,36.900000000000006,0)" xlink:href="#J"/><use transform="matrix(0.05,0,0,0.05,46.900000000000006,0)" xlink:href="#P"/><use transform="matrix(0.05,0,0,0.05,63.2,0)" xlink:href="#s"/><use transform="matrix(0.05,0,0,0.05,73.2,0)" xlink:href="#q"/><use transform="matrix(0.05,0,0,0.05,78.2,0)" xlink:href="#o"/><use transform="matrix(0.05,0,0,0.05,87.2,0)" xlink:href="#D"/></g></defs></g></svg>